<?xml version="1.0" standalone="no"?>
<!DOCTYPE svg PUBLIC "-//W3C//DTD SVG 20010904//EN"
 "http://www.w3.org/TR/2001/REC-SVG-20010904/DTD/svg10.dtd">
<svg version="1.0" xmlns="http://www.w3.org/2000/svg"
 width="1142.000000pt" height="238.000000pt" viewBox="0 0 1142.000000 238.000000"
 preserveAspectRatio="xMidYMid meet">

<g transform="translate(0.000000,238.000000) scale(0.100000,-0.100000)"
fill="#ffffff" stroke="none">
<path d="M792 2340 c-206 -47 -405 -169 -542 -332 -258 -308 -308 -722 -130
-1083 62 -127 134 -221 239 -311 102 -88 205 -148 329 -190 132 -45 222 -57
377 -51 138 5 237 28 359 82 186 82 382 267 470 442 14 29 26 55 26 58 0 3
-77 5 -171 5 l-170 0 -52 -56 c-138 -151 -307 -226 -511 -226 -199 1 -344 61
-487 202 -69 68 -94 102 -127 170 -56 114 -76 194 -76 310 0 126 16 196 71
310 39 81 59 108 132 180 142 142 291 204 486 204 127 0 213 -22 330 -82 91
-47 218 -172 269 -263 29 -52 76 -168 76 -186 0 -1 -238 -3 -530 -3 l-530 0 0
-155 0 -155 684 0 685 0 7 47 c11 74 -3 270 -25 354 -62 241 -213 453 -415
584 -123 80 -231 125 -374 154 -85 18 -304 12 -400 -9z"/>
<path d="M2280 1365 l0 -155 980 0 980 0 0 155 0 155 -980 0 -980 0 0 -155z"/>
<path d="M4880 1250 l0 -270 145 0 145 0 0 45 0 45 -90 0 -90 0 0 70 0 70 85
0 85 0 0 50 0 50 -85 0 -85 0 0 60 0 60 90 0 90 0 0 45 0 45 -145 0 -145 0 0
-270z"/>
<path d="M5320 1250 l0 -270 50 0 50 0 2 202 3 201 119 -201 118 -202 74 0 74
0 0 270 0 270 -50 0 -50 0 -2 -200 -3 -201 -118 201 -119 200 -74 0 -74 0 0
-270z"/>
<path d="M6010 1475 l0 -44 68 -3 67 -3 3 -222 2 -223 55 0 55 0 0 225 0 225
70 0 70 0 0 45 0 45 -195 0 -195 0 0 -45z"/>
<path d="M6550 1250 l0 -270 55 0 54 0 3 103 3 102 33 0 c30 0 37 -7 96 -100
l63 -100 62 -3 c33 -2 61 0 61 3 0 4 -34 56 -75 116 l-76 108 45 43 c51 50 65
97 47 159 -24 78 -98 108 -268 109 l-103 0 0 -270z m238 154 c15 -10 22 -24
22 -48 0 -46 -28 -68 -95 -74 l-55 -4 0 69 c0 38 3 73 7 77 11 11 94 -3 121
-20z"/>
<path d="M7090 1250 l0 -270 145 0 145 0 0 45 0 45 -90 0 -90 0 0 70 0 69 83
3 82 3 3 48 3 47 -85 0 -86 0 0 60 0 60 90 0 90 0 0 45 0 45 -145 0 -145 0 0
-270z"/>
<path d="M7580 1251 l0 -271 60 0 60 0 0 94 0 93 69 6 c82 7 140 34 173 79 33
46 33 149 1 194 -39 54 -82 67 -230 72 l-133 4 0 -271z m225 165 c37 -16 52
-48 41 -91 -8 -32 -40 -52 -98 -60 l-48 -7 0 86 0 86 35 0 c20 0 51 -6 70 -14z"/>
<path d="M8120 1250 l0 -270 55 0 54 0 3 103 3 102 31 3 c30 3 35 -2 98 -102
l68 -106 63 0 64 0 -79 115 -80 115 44 43 c51 49 65 96 47 158 -24 78 -98 108
-268 109 l-103 0 0 -270z m238 154 c16 -10 22 -24 22 -49 0 -48 -37 -75 -103
-75 l-50 0 7 53 c3 28 6 63 6 76 0 22 2 23 48 16 26 -3 57 -13 70 -21z"/>
<path d="M8710 1250 l0 -270 145 0 145 0 0 45 0 44 -92 3 -93 3 -3 67 -3 67
88 3 88 3 3 48 3 47 -91 0 -91 0 3 58 3 57 93 3 92 3 0 44 0 45 -145 0 -145 0
0 -270z"/>
<path d="M9200 1250 l0 -270 50 0 50 0 2 200 3 200 116 -198 116 -197 77 -3
76 -3 0 271 0 270 -57 0 -56 0 6 -200 c3 -110 4 -200 2 -200 -1 0 -56 90 -121
200 l-118 200 -73 0 -73 0 0 -270z"/>
<path d="M9890 1250 l0 -270 145 0 145 0 0 45 0 44 -92 3 -93 3 -3 67 -3 67
88 3 88 3 0 45 0 45 -88 3 -88 3 3 57 3 57 93 3 92 3 0 44 0 45 -145 0 -145 0
0 -270z"/>
<path d="M10330 1323 c0 -179 2 -201 21 -240 66 -136 323 -136 396 0 15 27 18
66 21 235 l4 202 -56 0 -56 0 0 -167 c0 -177 -8 -229 -39 -257 -49 -44 -150
-23 -170 36 -6 18 -11 109 -11 209 l0 179 -55 0 -55 0 0 -197z"/>
<path d="M10970 1251 l0 -271 55 0 55 0 0 105 0 105 33 0 c30 0 37 -8 99 -105
l67 -105 61 0 c63 0 68 3 47 29 -8 9 -42 58 -77 109 l-62 92 41 38 c86 76 75
193 -23 244 -34 18 -63 23 -168 26 l-128 4 0 -271z m195 169 c45 -10 65 -32
65 -70 0 -40 -32 -63 -95 -68 l-55 -4 0 76 c0 85 1 86 85 66z"/>
<path d="M3260 490 l0 -470 155 0 155 0 0 470 0 470 -155 0 -155 0 0 -470z"/>
<path d="M3940 490 l0 -470 150 0 150 0 0 470 0 470 -150 0 -150 0 0 -470z"/>
<path d="M6350 564 c-99 -36 -130 -71 -130 -148 0 -81 30 -118 143 -181 75
-41 92 -62 78 -98 -17 -43 -77 -49 -168 -17 -32 11 -59 20 -60 20 -2 0 -3 -24
-3 -53 0 -54 0 -54 38 -65 69 -20 128 -24 173 -12 86 23 131 76 131 155 0 76
-32 114 -139 168 -28 15 -60 38 -71 52 -51 65 38 110 135 70 20 -8 37 -14 38
-13 3 4 35 79 35 83 0 2 -18 10 -40 19 -43 17 -136 29 -160 20z"/>
<path d="M4882 293 l3 -268 53 -3 52 -3 0 110 0 111 85 0 85 0 0 45 0 45 -85
0 -85 0 0 70 0 70 95 0 95 0 0 45 0 45 -150 0 -150 0 2 -267z"/>
<path d="M5372 293 l3 -268 48 -3 47 -3 0 270 0 271 -50 0 -50 0 2 -267z"/>
<path d="M5670 290 l0 -270 55 0 55 0 0 106 0 105 37 -3 c34 -3 40 -9 101
-105 l64 -103 65 0 64 0 -80 116 -80 116 44 41 c92 89 60 222 -63 257 -20 5
-88 10 -149 10 l-113 0 0 -270z m240 155 c12 -11 20 -31 20 -51 0 -43 -35 -68
-99 -68 l-46 -1 -3 74 -3 74 55 -5 c35 -3 63 -12 76 -23z"/>
<path d="M6700 515 l0 -45 70 0 70 0 0 -225 0 -225 55 0 55 0 0 225 0 225 70
0 70 0 0 45 0 45 -195 0 -195 0 0 -45z"/>
</g>
</svg>
