<?xml version="1.0" standalone="no"?>
<!DOCTYPE svg PUBLIC "-//W3C//DTD SVG 20010904//EN"
 "http://www.w3.org/TR/2001/REC-SVG-20010904/DTD/svg10.dtd">
<svg version="1.0" xmlns="http://www.w3.org/2000/svg"
 width="388.000000pt" height="160.000000pt" viewBox="0 0 388.000000 160.000000"
 preserveAspectRatio="xMidYMid meet">

<g transform="translate(0.000000,160.000000) scale(0.100000,-0.100000)"
fill="#ffffff" stroke="none">
<path d="M705 1594 c-372 -40 -602 -233 -681 -570 -25 -104 -25 -354 0 -464
46 -205 133 -349 265 -437 123 -82 246 -113 446 -113 181 0 324 20 483 68 l52
16 0 403 0 403 -305 0 -305 0 0 -135 0 -134 143 -3 142 -3 3 -161 c3 -190 18
-172 -149 -181 -167 -9 -249 17 -332 106 -86 92 -127 224 -127 404 1 274 131
466 350 517 113 27 280 9 412 -45 l59 -24 9 22 c6 12 30 71 54 130 l44 108
-35 14 c-51 22 -160 52 -228 65 -69 12 -241 20 -300 14z"/>
<path d="M3305 1590 c-255 -41 -444 -186 -535 -412 -54 -136 -65 -205 -64
-398 1 -154 4 -187 27 -271 72 -272 230 -432 478 -484 138 -29 394 -15 519 29
85 30 110 48 110 79 0 34 -20 221 -25 225 -1 2 -20 -4 -41 -12 -109 -43 -209
-61 -334 -61 -122 0 -127 1 -192 33 -144 71 -208 218 -208 477 0 308 113 491
325 523 99 16 202 -5 343 -69 l63 -28 9 22 c6 12 30 72 54 132 l44 110 -25 14
c-133 70 -398 114 -548 91z"/>
<path d="M1582 788 l3 -783 163 -3 162 -2 0 320 0 320 260 0 260 0 0 135 0
135 -260 0 -260 0 0 200 0 200 280 0 280 0 0 130 0 130 -445 0 -445 0 2 -782z"/>
</g>
</svg>
