<?xml version="1.0" encoding="utf-8"?>
<!-- Generator: Adobe Illustrator 26.0.1, SVG Export Plug-In . SVG Version: 6.00 Build 0)  -->
<svg version="1.1" id="Layer_1" xmlns="http://www.w3.org/2000/svg" xmlns:xlink="http://www.w3.org/1999/xlink" x="0px" y="0px"
	 viewBox="0 0 243 69" style="enable-background:new 0 0 243 69;" xml:space="preserve">
<style type="text/css">
	.st0{fill:url(#SVGID_1_);}
	.st1{fill-rule:evenodd;clip-rule:evenodd;fill:#FFFFFF;}
	.st2{fill:#FFFFFF;}
</style>
<g>
	<path class="st2" d="M27.1,33.8L13.2,9.7l2.9-5c1.4-2.5,3.9-4,6.8-4h14.9h14.9c2.9,0,5.4,1.4,6.8,4l8.4,14.6h-7.5L54.4,8.8
		c-0.6-1.1-1.8-1.6-2.9-1.6H23.9c-1.7,0-3.1,1.4-3.1,3.1c0,0.6,0.2,1.2,0.5,1.7l12.9,22.4L23.9,52.3c-3.4-5.9-6.8-11.8-10.2-17.7
		l3.4-5.8L23.5,40L27.1,33.8z M74.4,30.5l-2.9-5H43.7l-3.6-6.2l13,0l-3.4-5.8c-6.8,0-13.7,0-20.5,0l10.3,17.8h26.1
		c0.5,0,1,0.2,1.4,0.4c1.5,0.9,2,2.8,1.1,4.3L54.5,59.9c-0.5,1-1.6,1.8-2.8,1.8H39.6l-3.7,6.5h16.8c2.9,0,5.4-1.4,6.8-3.9L67,51.3
		l7.5-12.9C75.8,35.9,75.8,33,74.4,30.5z M49.7,44.1l-6.5,11.3h6.7c3.4-5.9,6.8-11.8,10.2-17.7H39.6L26.6,60c-0.3,0.5-0.7,1-1.2,1.3
		c-1.5,0.9-3.4,0.3-4.3-1.2L7.4,36.2c-0.7-1-0.7-2.3-0.1-3.3l6-10.5l-3.7-6.5L1.1,30.5c-1.4,2.5-1.4,5.4,0,7.9l7.5,12.9L16,64.2
		c1.5,2.5,3.9,3.9,6.8,3.9h5.8l13.9-24.1L49.7,44.1z"/>
	<path class="st1" d="M243,9.9v7.5h-2v-4.2l-2.1,2h-0.2l-2.1-2v4.2h-2V9.9h0.8h1.2l2.2,2.4l2.2-2.4h1.2H243z M225.2,11.9h2.4v5.5h2
		v-5.5h2.4v-2h-6.8L225.2,11.9L225.2,11.9z"/>
	<path class="st2" d="M111.5,31.1H98.8c-0.9,0-1.6-0.8-1.6-1.8v-4.7c0-1,0.7-1.7,1.6-1.7h18.4V16H97c-3.7,0-6.8,3-6.8,6.7v8.5
		c0,3.7,3,6.7,6.8,6.7h12.6c1,0,1.7,0.7,1.7,1.7v4.9c0,0.9-0.7,1.7-1.7,1.7H90.2V53h21.2c3.7,0,6.8-3,6.8-6.7v-8.5
		C118.2,34.1,115.2,31.1,111.5,31.1z"/>
	<path class="st2" d="M146.2,24.2h-13.3c-3.7,0-6,1.7-6.7,5.1c-0.1,0.5-0.2,1-0.2,1.4v15.1c0,3,1.2,5.2,3.4,6.4
		c1,0.5,2.3,0.8,4.2,0.8h19.2V46h-18.2c-0.9,0-1.4-0.8-1.4-2v-2.6h19.7v-0.4v-5.7v-4.3c0-0.5,0-0.9,0-1.2
		C152.3,26,150.1,24.2,146.2,24.2z M145.7,35.2h-12.5v-2.3c0-0.3,0.1-0.6,0.2-0.7c0.4-0.7,1.1-1.1,2.1-1.1h8.6c0.1,0,0.3,0,0.4,0
		c0.7,0.2,1.3,0.5,1.3,1.1L145.7,35.2L145.7,35.2z"/>
	<path class="st2" d="M222.1,27.5v-4.8c0-3.7-3-6.7-6.7-6.7h-21.2v6.9h19.4c1,0,1.7,0.7,1.7,1.7v2.7c0,2.1-1.7,3.8-3.8,3.8h-9.8v6.8
		h9.8c2.1,0,3.8,1.7,3.8,3.8v2.8c0,0.9-0.7,1.7-1.7,1.7h-19.4V53h21.2c3.7,0,6.7-3,6.7-6.7v-4.8c0-3.7-3-6.7-6.7-6.7v-0.6
		C219.1,34.2,222.1,31.2,222.1,27.5z"/>
	<path class="st2" d="M160.7,30.8v15c0,4.8,2.4,7.2,7.3,7.2h18.1v-6.9h-16.5c-1.1,0-2-0.9-2-1.9V33c0-1.2,0.9-1.9,2.1-1.9h16.3v-6.9
		h-19.6C162.7,24.2,160.7,26.4,160.7,30.8z"/>
</g>
</svg>
